<?xml version="1.0" encoding="UTF-8"?>
<svg id="Calque_1" data-name="Calque 1" xmlns="http://www.w3.org/2000/svg" viewBox="130 430 820 220">
  <defs>
    <style>
      .cls-1 {
        fill: #f5a050;
      }

      .cls-1, .cls-2, .cls-3, .cls-4 {
        stroke-width: 0px;
      }

      .cls-2 {
        fill: #331a16;
      }

      .cls-5 {
        fill: none;
        stroke: #66281b;
        stroke-miterlimit: 10;
        stroke-width: 2px;
      }

      .cls-3 {
        fill: #66281b;
      }

      .cls-4 {
        fill: #ef975b;
      }
    </style>
  </defs>
  <path class="cls-4" d="M383.76,501.91c0,34.88-28.17,63.15-62.93,63.15s-62.93-28.27-62.93-63.15,28.17-63.15,62.93-63.15,62.93,28.27,62.93,63.15h0Z"/>
  <path class="cls-2" d="M234.88,470.49c1.19-.23,2.44-.13,3.66-.11.92-.09,1.84-.23,2.75-.39,1.21-.22,2.41-.47,3.6-.75-1.43-.08-2.85-.19-4.28-.32-1.89-.18-3.74-.4-5.56-.96-.17-.05-.13-.29.04-.3,3.21-.14,6.43.33,9.64.5.12,0,.24.01.36.02-2.83-.58-6.25-1.23-8.19-3.57-.14-.17.07-.37.24-.24,1.18.92,2.63,1.36,4.05,1.76,0,0,.02,0,.03,0-.09-.05-.17-.1-.26-.15-1.22-.72-2.6-1.84-3.02-3.26-.03-.11.12-.2.2-.12.62.62,1.14,1.24,1.87,1.75.64.45,1.33.81,2.04,1.12.48.21.97.38,1.46.54-1.68-1.33-3.12-3.04-4.35-4.77-.07-.1.07-.25.17-.17.98.69,1.9,1.43,2.78,2.25.82.76,1.6,1.56,2.54,2.17,1.88,1.22,4.13,1.49,6.28,1.95.48.1.95.21,1.43.33-.82-.59-1.63-1.2-2.43-1.82-.08-.06.02-.19.11-.14,1.32.78,2.64,1.57,3.97,2.33.02-.01.03-.03.04-.05-.56-.41-1.16-.78-1.79-1-.16-.06-.15-.34.04-.32,1.1.11,2.02.41,2.97.97.91.54,1.76,1.16,2.67,1.68.45.26.9.5,1.36.73.25.11.5.23.75.34,1.33.46,2.64.94,3.95,1.45,1.38.54,2.75,1.11,4.09,1.75,1.4.66,2.78,1.38,4.26,1.87,1.47.49,3.07.77,4.61.45,1.37-.28,2.59-1.02,3.94-1.36,1.43-.36,2.63-.05,3.86.73.73.47,1.44.91,2.28,1.15.04.01.08.02.13.03.84-.09,1.68-.23,2.51-.41,2.86-.64,5.59-1.8,8.02-3.45,1.26-.86,2.36-1.68,3.91-1.92,1.46-.22,2.93-.03,4.39.01.91.03,1.81-.01,2.7-.11.26-.05.53-.11.79-.16,1.37-.29,2.74-.57,4.11-.85.54-.16,1.07-.34,1.61-.52,3.34-1.17,6.46-2.86,9.76-4.12.19-.07.28.21.13.31-1.72,1.18-3.54,2.22-5.42,3.12,1.15-.23,2.3-.48,3.43-.8,1.02-.28,2.01-.63,3-1.03.99-.4,1.94-.92,2.95-1.27.1-.04.17.1.1.17-1.38,1.37-3.41,2.22-5.21,2.88-2.08.77-4.27,1.19-6.43,1.64-.03,0-.06.01-.09.02.85-.07,1.71-.14,2.56-.21,1.68-.15,3.36-.32,5.04-.49.93-.09,1.85-.2,2.78-.33.81-.11,1.64-.29,2.45-.31.16,0,.24.24.09.32-1.51.7-3.32.93-4.94,1.22-.78.14-1.56.26-2.35.37,2.87.18,5.76.41,8.58.91.21.04.15.36-.05.37-3.45.08-6.91-.16-10.35-.3-.25-.01-.5-.02-.74-.03.43.09.87.18,1.3.28,1.75.38,3.49.62,5.27.81,1.62.17,3.26.36,4.76,1.02.14.06.03.26-.1.23-1.7-.33-3.41-.35-5.14-.39-.14,0-.28-.01-.41-.02.02.06-.01.12-.09.12-1.1.05-2.2-.14-3.29-.25-.41-.04-.82-.05-1.24-.05,2.79.76,5.71.93,8.52,1.64.18.05.13.3-.04.31-1.8.11-3.64-.1-5.42-.31-1.24-.15-2.46-.36-3.66-.68-.3,0-.6-.02-.9-.03.97.29,1.96.55,2.95.78,1.5.34,3.17.41,4.61.98.1.04.12.19,0,.22-1.4.35-2.99.05-4.4-.17-1.11-.17-2.21-.41-3.29-.7.32.11.63.21.95.3,1.25.35,2.54.56,3.81.86.12.03.08.2-.03.21-1.4.13-2.78.15-4.16-.14-.12-.03-.24-.06-.36-.09-.02.03-.04.05-.08.05-.08.02-.17.03-.25.04,1.14.19,2.27.41,3.38.77.15.05.12.26-.04.27-1.38.1-2.77.01-4.15-.12-.03,0-.07,0-.1-.01.66.25,1.32.52,1.96.81.09.04.04.18-.05.18-.67,0-1.33-.06-1.99-.17.15.3.06.62-.22.88-.18.17-.4.24-.63.31-.25.07-.53.09-.71.31-.1.13-.13.37-.2.52-.24.58-.6.69-1.19.76-.55.07-.61.35-.96.69-.24.23-.53.39-.83.53-.56.25-1.2.38-1.67.8-.51.44-.72,1.13-1.23,1.58-.53.47-1.15.48-1.82.49-.38,0-.8-.02-.99.38-.16.33-.17.6-.43.89-.9,1-2.28,1.91-3.67,1.58-.31-.07-.98-.45-1.19-.02-.11.23-.05.47-.21.7-.48.65-1.21.49-1.91.47-.82-.02-1.65.44-2.43.66-.87.25-1.75.43-2.64.56-.91.13-1.92.31-2.84.15.54.49,1.1.95,1.7,1.41.28.21.55.42.83.63.55.29,1.1.57,1.66.85.79.4,1.59.8,2.38,1.22.73.39,1.66.77,2.2,1.43.1.12.04.33-.13.32-.63,0-1.26-.28-1.86-.55.08.06.16.13.24.19.57.46,1.23.91,1.64,1.52.13.19-.09.46-.3.39-.4-.13-.76-.35-1.12-.59-1.03-.25-2.05-.77-2.98-1.21-.07-.04-.14-.07-.22-.11.15.1.3.21.45.31.67.46,1.34.93,2,1.41.6.44,1.28.88,1.76,1.45.15.18.01.51-.25.43-.02,0-.04-.01-.05-.02.02.13-.1.29-.26.24-1.58-.45-2.98-1.3-4.32-2.24-.09-.06-.17-.12-.26-.18,0,0,.02.02.03.03,1.09.99,2.29,1.87,3.33,2.91.23.23-.06.6-.34.45-.86-.45-1.68-1.04-2.45-1.66.12.22.24.44.37.66.02.03.04.06.05.09.11.13.22.27.32.41.04.06.05.12.03.17.17.28.33.56.45.87.06.17-.14.28-.27.21-.6-.3-1.08-.86-1.49-1.47-.66-.45-1.26-1.01-1.83-1.52-.07-.06-.13-.12-.2-.19.36.47.74.94,1.14,1.37.48.52,1.06,1,1.49,1.56.19.24-.04.53-.31.41-.73-.31-1.41-.9-2-1.53-.05-.02-.11-.04-.16-.06.21.21.42.42.63.62.07.07,0,.17-.08.16.21.19.39.39.51.63.06.13,0,.32-.18.31-.63-.04-1.22-.48-1.73-.82-.6-.4-1.19-.82-1.76-1.27-1.22-.95-2.38-1.98-3.48-3.07-.05-.05-.11-.11-.16-.16.43.56.86,1.12,1.31,1.66.78.94,1.66,1.79,2.46,2.72.22.26-.05.64-.37.48-1.4-.73-2.54-2-3.55-3.2-.19-.23-.38-.46-.57-.7.5.81,1.07,1.61,1.5,2.45.08.17-.09.37-.27.27-1.19-.7-2.08-2.09-2.78-3.25-.02-.04-.04-.07-.06-.11.18.53.38,1.08.28,1.64-.04.24-.37.29-.52.14-.42-.4-.56-1.01-.78-1.54-.28-.69-.58-1.37-.9-2.04-.6-1.27-1.29-2.48-1.98-3.7-.55-.97-1.01-1.96-1.35-2.99-.06.06-.12.12-.19.17-.69.51-1.61.34-2.39.19-1.73-.34-3.38-1.04-4.94-1.86-.57-.3-1.13-.62-1.68-.96-.08-.03-.17-.06-.25-.1-.35-.14-.69-.31-1.01-.49-.14-.04-.28-.06-.43-.08-.57-.08-1.15,0-1.72-.06-.69-.08-1.39-.4-1.76-.98-.61.15-1.25.14-1.85-.03-.42-.12-.81-.31-1.16-.57-.32-.24-.58-.57-.93-.76-.39-.21-.85.03-1.28,0-.39-.03-.74-.2-1.05-.42-.38-.27-1.4-1.48-1.89-.93-.31.35-.91.15-1.03-.27-.22-.77-1.16-.9-1.84-.94-.77-.04-1.54-.03-2.26-.36-.2-.09-.39-.21-.57-.34-.32-.07-.63-.18-.91-.4-.27-.21-.52-.59-.8-.89-.08-.02-.16-.05-.24-.07-.06-.02-.09-.07-.1-.12-.49-.07-.89-.32-1.08-.79-.01,0-.02,0-.03,0-.61.15-1.36.4-1.98.17-.17,0-.33-.04-.5-.15-.05-.04-.08-.11-.04-.17.28-.42.73-.72,1.03-1.13.17-.23.32-.46.48-.7-.97.38-1.98.63-2.98.9-.79.47-1.65.79-2.61.83-.12,0-.18-.18-.07-.24,1.69-.82,3.09-2.08,4.42-3.39.32-.32.65-.64.97-.96-.76.27-1.53.52-2.33.69-1.18.26-2.38.45-3.57.65-1.17.2-2.41.41-3.6.32-.06,0-.11-.04-.14-.09-.15,0-.29,0-.44-.02-.48-.03-1.12,0-1.45-.38-.05-.06-.06-.14,0-.19.36-.36.97-.29,1.45-.31.73-.04,1.47-.07,2.2-.18,1.38-.2,2.67-.62,3.9-1.27.37-.2.73-.41,1.08-.63-.41.07-.82.12-1.24.16-1.44.15-2.89.18-4.33.13-.19,0-.38-.01-.57-.02-1.3.11-2.6.06-3.76-.38-.06-.02-.09-.07-.11-.13-.17-.08-.19-.38.03-.42h0Z"/>
  <g>
    <path class="cls-1" d="M256.88,580.74c14.81-2.13,31.14,3.5,33.99,15.33,2.95,12.27-7.19,28.99-24.5,30.65l73.64,14.52c103.24-27.25,75.95-72.28,149.19-37.11,11.53,5.54-19.2-26.02-82.04-45.03l-150.27,21.63Z"/>
    <g>
      <path class="cls-3" d="M340.01,641.24c97.31-30.9,140.32-32.73,156.94-35.49,11.49-1.91-117.56-82.31-95.56-27.78,5.5,13.63-.87,18.22-10.43,29.13-11.62,13.26-39.33,20.88-50.95,34.14Z"/>
      <path class="cls-1" d="M143.98,600.14l40.91,10.59,105.36,20.37c12.46-.4,21.7-3.43,27.52-5.92,6.97-2.97,14.11-6.02,14.37-11.09.31-6.01-9.23-10.69-10.08-11.09-19.78-10.67-22.85-14.15-49.41-22.63-8.33-2.66-16.46-4.96-24.34-6.95l-104.33,26.73Z"/>
    </g>
    <path class="cls-3" d="M236.71,598.41l-51.82,12.31,105.36,20.37c12.46-.4,21.7-3.43,27.52-5.92,6.97-2.97,14.11-6.02,14.37-11.09.31-6.01-9.23-10.69-10.08-11.09-16.57-10.92-91.41-44.81-72.9-22.01,7.84,9.65-12.45,17.43-12.45,17.43Z"/>
  </g>
  <g>
    <path class="cls-3" d="M300.1,580.67c-.16-.7-1.12-.52-1.5-.99-.51-.64-.16-2.1-.02-2.82.22-1.11.48-2.35,1.08-3.31.53-.85.56-1.62.86-2.53.33-1,1.04-1.85,1.48-2.79.27-.57.97-1.55.95-2.14-.15-.05.07.06.11.18.09.3.33.57.46.86.22.5.38,1.03.58,1.54.31.77.64,1.53,1.04,2.26.33.6.54,1.1.68,1.77.1.5.41.78.64,1.24.77,1.49,1.08,3.23,1.62,4.79.17.47.34.67.66,1.06.31.38.11.89.36,1.21.31.41,1.35.17,1.8.17.25,0,.52.09.78-.04.23-.11.14-.37.47-.38-.46-.76-1.66-.71-2.08-1.69-.46-1.08-1.03-2.12-1.43-3.3-.24-.7-.64-1.47-.65-2.22,0-.65.01-1.08-.26-1.73-.29-.7-.69-1.26-.89-2.01-.3-1.13-.67-2.21-.97-3.34-.25-.95-.51-1.55.17-2.26.55-.56,1.27-1.36,1.16-2.21,3.13.87,5.96-.18,8.49-2,.94-.68,1.88-1.43,2.85-2.04.66-.42.97-.85,1.48-1.47.67-.8,1.46-1.57,1.58-2.61.57-.04,1.32-1.01,2.12-1.09.64-.07,1.28-.23,1.66-.87-.48-.86-.57-1.72-1.79-1.76-.51-.02-.92-.18-1.41-.19-.68-.02-1.01.18-1.71-.07-1.05-.37-2.18-.32-3.03.51-.19-.36-.74-.91-.96-.47-.24.5.47,1.18.3,1.6-.09.21-.27.17-.43.3-.29.22-.37.45-.55.72-.14.21-.35.37-.53.57-.23.25-.31.57-.52.83-.33.39-1.14.29-1.14.93-.26-.02-.42-.33-.7-.17-.27.16-.14.59-.32.79l-.63.39c-.3.09-.64-.17-1.03-.1-.06.17-.06.37-.04.56-.66-.19-1.31-.16-1.79.35-.83-.1-1.26-.53-1.97-.99-.31-.21-.65-.39-.9-.68-.23-.26-.51-.47-.72-.74-.11-.14-.11-.38-.27-.52-.18-.15-.34-.1-.5-.21-.16-.11-.15-.29-.34-.38-.19-.1-.43-.01-.61-.09-.35-.14-.57-.35-.99-.44-.22-.05-.61-.13-.88-.2-.19-.06-.29-.14-.5-.24-.12-.06-.16-.16-.31-.2-.1-.03-.19.1-.31.07-.38-.12-.85-.31-1.22-.56-.71.1-.95-.71-1.63-.71-.15-.49-.27-.6-.77-.65-.18-.02-.4.02-.57-.05-.18-.08-.26-.32-.43-.41-.42-.19-.74.15-1.18.06-.32-.06-1.04-.5-1.09.17-.3-.07-.73-.13-1.04-.01-.22.09-.37.35-.6.43-.33.12-.61.02-.92.29-.33.29-.38.5-.79.71-.52.26-.52.37-.77.86-.25.48-.34.33-.76.5-.58.24-.56.76-1.19.94-.42.12-1.83.26-1.99.67-.21.08-.45.3-.73.4-.3.11-.67.22-.83.56-1.14.5-2.26,2.23-2.72,3.32-.62,1.51-.73,3.08-.8,4.69-.04.97-.17,1.95-.26,2.91-.05.49-.08.89-.27,1.35-.51,1.23-1.43,2.32-2.35,3.26-.81.82-.34,2.28-.39,3.39-.05.96-.1,1.92-.17,2.87-.05.64,0,1.13-.27,1.71-.16.32-.8.25-.93.64-.13.4.37,1.4.63,1.73.44.56.59.17.6-.37.01-.6.1-.8.47-1.25.72-.89.29-2.26.54-3.37.32-1.42.67-2.77,1.4-4.09.69-1.24,1.95-2.41,3.1-3.21-.3,1.12-.47,2.55-.75,3.75-.1.43-.22.7-.01,1.06.26.45.58.74.81,1.26.66,1.49,1.64,2.69,2.51,4.05.34.54.8,1.82,1.36,2.07.47.21,1.9.35,2.33.08.85-.01-.71-.84-.87-.89-.38-.11-1.3-.29-1.33-.71-.03-.4-.41-.78-.62-1.11-.32-.5-.6-1.03-.88-1.56-.6-1.17-.92-2.25-.89-3.58.04-1.49.16-3.33.87-4.69.55-1.07.77-1.97.77-3.19,0-1.03.08-2.15,1.05-2.76-.09.32.64,1.03.89,1.3.75.82,1.82,1.36,2.79,1.91,2.12,1.2,4.9,1.28,7.08.28.62-.29,1.63-.65,2.27-.61-.03,1.02-.52,2.85-1.01,3.86-.44.9-1.03,1.76-1.14,2.76-.14,1.24-.3,2.45-.48,3.7-.09.59-.19,1.16-.31,1.74-.07.31-.3.85-.27,1.14.03.27.32.52.39.8.1.37-.1.71-.1,1.09,0,.6,2.29.34,2.74.02h0Z"/>
    <path class="cls-3" d="M349.35,580.67c-.16-.7-1.12-.52-1.5-.99-.51-.64-.16-2.1-.02-2.82.22-1.11.48-2.35,1.08-3.31.53-.85.56-1.62.86-2.53.33-1,1.04-1.85,1.48-2.79.27-.57.97-1.55.95-2.14-.15-.05.07.06.11.18.09.3.33.57.46.86.22.5.38,1.03.58,1.54.31.77.64,1.53,1.04,2.26.33.6.54,1.1.68,1.77.1.5.41.78.64,1.24.77,1.49,1.08,3.23,1.62,4.79.17.47.34.67.66,1.06.31.38.11.89.36,1.21.31.41,1.35.17,1.8.17.25,0,.52.09.78-.04.23-.11.14-.37.47-.38-.46-.76-1.66-.71-2.08-1.69-.46-1.08-1.03-2.12-1.43-3.3-.24-.7-.64-1.47-.65-2.22,0-.65.01-1.08-.26-1.73-.29-.7-.69-1.26-.89-2.01-.3-1.13-.67-2.21-.97-3.34-.25-.95-.51-1.55.17-2.26.55-.56,1.27-1.36,1.16-2.21,3.13.87,5.96-.18,8.49-2,.94-.68,1.88-1.43,2.85-2.04.66-.42.97-.85,1.48-1.47.67-.8,1.46-1.57,1.58-2.61.57-.04,1.32-1.01,2.12-1.09.64-.07,1.28-.23,1.66-.87-.48-.86-.57-1.72-1.79-1.76-.51-.02-.92-.18-1.41-.19-.68-.02-1.01.18-1.71-.07-1.05-.37-2.18-.32-3.03.51-.19-.36-.74-.91-.96-.47-.24.5.47,1.18.3,1.6-.09.21-.27.17-.43.3-.29.22-.37.45-.55.72-.14.21-.35.37-.53.57-.23.25-.31.57-.52.83-.33.39-1.14.29-1.14.93-.26-.02-.42-.33-.7-.17-.27.16-.14.59-.32.79l-.63.39c-.3.09-.64-.17-1.03-.1-.06.17-.06.37-.04.56-.66-.19-1.31-.16-1.79.35-.83-.1-1.26-.53-1.97-.99-.31-.21-.65-.39-.9-.68-.23-.26-.51-.47-.72-.74-.11-.14-.11-.38-.27-.52-.18-.15-.34-.1-.5-.21-.16-.11-.15-.29-.34-.38-.19-.1-.43-.01-.61-.09-.35-.14-.57-.35-.99-.44-.22-.05-.61-.13-.88-.2-.19-.06-.29-.14-.5-.24-.12-.06-.16-.16-.31-.2-.1-.03-.19.1-.31.07-.38-.12-.85-.31-1.22-.56-.71.1-.95-.71-1.63-.71-.15-.49-.27-.6-.77-.65-.18-.02-.4.02-.57-.05-.18-.08-.26-.32-.43-.41-.42-.19-.74.15-1.18.06-.32-.06-1.04-.5-1.09.17-.3-.07-.73-.13-1.04-.01-.22.09-.37.35-.6.43-.33.12-.61.02-.92.29-.33.29-.38.5-.79.71-.52.26-.52.37-.77.86-.25.48-.34.33-.76.5-.58.24-.56.76-1.19.94-.42.12-1.83.26-1.99.67-.21.08-.45.3-.73.4-.3.11-.67.22-.83.56-1.14.5-2.26,2.23-2.72,3.32-.62,1.51-.73,3.08-.8,4.69-.04.97-.17,1.95-.26,2.91-.05.49-.08.89-.27,1.35-.51,1.23-1.43,2.32-2.35,3.26-.81.82-.34,2.28-.39,3.39-.05.96-.1,1.92-.17,2.87-.05.64,0,1.13-.27,1.71-.16.32-.8.25-.93.64-.13.4.37,1.4.63,1.73.44.56.59.17.6-.37.01-.6.1-.8.47-1.25.72-.89.29-2.26.54-3.37.32-1.42.67-2.77,1.4-4.09.69-1.24,1.95-2.41,3.1-3.21-.3,1.12-.47,2.55-.75,3.75-.1.43-.22.7-.01,1.06.26.45.58.74.81,1.26.66,1.49,1.64,2.69,2.51,4.05.34.54.8,1.82,1.36,2.07.47.21,1.9.35,2.33.08.85-.01-.71-.84-.87-.89-.38-.11-1.3-.29-1.33-.71-.03-.4-.41-.78-.62-1.11-.32-.5-.6-1.03-.88-1.56-.6-1.17-.92-2.25-.89-3.58.04-1.49.16-3.33.87-4.69.55-1.07.77-1.97.77-3.19,0-1.03.08-2.15,1.05-2.76-.09.32.64,1.03.89,1.3.75.82,1.82,1.36,2.79,1.91,2.12,1.2,4.9,1.28,7.08.28.62-.29,1.63-.65,2.27-.61-.03,1.02-.52,2.85-1.01,3.86-.44.9-1.03,1.76-1.14,2.76-.14,1.24-.3,2.45-.48,3.7-.09.59-.19,1.16-.31,1.74-.07.31-.3.85-.27,1.14.03.27.32.52.39.8.1.37-.1.71-.1,1.09,0,.6,2.29.34,2.74.02h0Z"/>
    <path class="cls-3" d="M398.59,580.67c-.16-.7-1.12-.52-1.5-.99-.51-.64-.16-2.1-.02-2.82.22-1.11.48-2.35,1.08-3.31.53-.85.56-1.62.86-2.53.33-1,1.04-1.85,1.48-2.79.27-.57.97-1.55.95-2.14-.15-.05.07.06.11.18.09.3.33.57.46.86.22.5.38,1.03.58,1.54.31.77.64,1.53,1.04,2.26.33.6.54,1.1.68,1.77.1.5.41.78.64,1.24.77,1.49,1.08,3.23,1.62,4.79.17.47.34.67.66,1.06.31.38.11.89.36,1.21.31.41,1.35.17,1.8.17.25,0,.52.09.78-.04.23-.11.14-.37.47-.38-.46-.76-1.66-.71-2.08-1.69-.46-1.08-1.03-2.12-1.43-3.3-.24-.7-.64-1.47-.65-2.22,0-.65.01-1.08-.26-1.73-.29-.7-.69-1.26-.89-2.01-.3-1.13-.67-2.21-.97-3.34-.25-.95-.51-1.55.17-2.26.55-.56,1.27-1.36,1.16-2.21,3.13.87,5.96-.18,8.49-2,.94-.68,1.88-1.43,2.85-2.04.66-.42.97-.85,1.48-1.47.67-.8,1.46-1.57,1.58-2.61.57-.04,1.32-1.01,2.12-1.09.64-.07,1.28-.23,1.66-.87-.48-.86-.57-1.72-1.79-1.76-.51-.02-.92-.18-1.41-.19-.68-.02-1.01.18-1.71-.07-1.05-.37-2.18-.32-3.03.51-.19-.36-.74-.91-.96-.47-.24.5.47,1.18.3,1.6-.09.21-.27.17-.43.3-.29.22-.37.45-.55.72-.14.21-.35.37-.53.57-.23.25-.31.57-.52.83-.33.39-1.14.29-1.14.93-.26-.02-.42-.33-.7-.17-.27.16-.14.59-.32.79l-.63.39c-.3.09-.64-.17-1.03-.1-.06.17-.06.37-.04.56-.66-.19-1.31-.16-1.79.35-.83-.1-1.26-.53-1.97-.99-.31-.21-.65-.39-.9-.68-.23-.26-.51-.47-.72-.74-.11-.14-.11-.38-.27-.52-.18-.15-.34-.1-.5-.21-.16-.11-.15-.29-.34-.38-.19-.1-.43-.01-.61-.09-.35-.14-.57-.35-.99-.44-.22-.05-.61-.13-.88-.2-.19-.06-.29-.14-.5-.24-.12-.06-.16-.16-.31-.2-.1-.03-.19.1-.31.07-.38-.12-.85-.31-1.22-.56-.71.1-.95-.71-1.63-.71-.15-.49-.27-.6-.77-.65-.18-.02-.4.02-.57-.05-.18-.08-.26-.32-.43-.41-.42-.19-.74.15-1.18.06-.32-.06-1.04-.5-1.09.17-.3-.07-.73-.13-1.04-.01-.22.09-.37.35-.6.43-.33.12-.61.02-.92.29-.33.29-.38.5-.79.71-.52.26-.52.37-.77.86-.25.48-.34.33-.76.5-.58.24-.56.76-1.19.94-.42.12-1.83.26-1.99.67-.21.08-.45.3-.73.4-.3.11-.67.22-.83.56-1.14.5-2.26,2.23-2.72,3.32-.62,1.51-.73,3.08-.8,4.69-.04.97-.17,1.95-.26,2.91-.05.49-.08.89-.27,1.35-.51,1.23-1.43,2.32-2.35,3.26-.81.82-.34,2.28-.39,3.39-.05.96-.1,1.92-.17,2.87-.05.64,0,1.13-.27,1.71-.16.32-.8.25-.93.64-.13.4.37,1.4.63,1.73.44.56.59.17.6-.37.01-.6.1-.8.47-1.25.72-.89.29-2.26.54-3.37.32-1.42.67-2.77,1.4-4.09.69-1.24,1.95-2.41,3.1-3.21-.3,1.12-.47,2.55-.75,3.75-.1.43-.22.7-.01,1.06.26.45.58.74.81,1.26.66,1.49,1.64,2.69,2.51,4.05.34.54.8,1.82,1.36,2.07.47.21,1.9.35,2.33.08.85-.01-.71-.84-.87-.89-.38-.11-1.3-.29-1.33-.71-.03-.4-.41-.78-.62-1.11-.32-.5-.6-1.03-.88-1.56-.6-1.17-.92-2.25-.89-3.58.04-1.49.16-3.33.87-4.69.55-1.07.77-1.97.77-3.19,0-1.03.08-2.15,1.05-2.76-.09.32.64,1.03.89,1.3.75.82,1.82,1.36,2.79,1.91,2.12,1.2,4.9,1.28,7.08.28.62-.29,1.63-.65,2.27-.61-.03,1.02-.52,2.85-1.01,3.86-.44.9-1.03,1.76-1.14,2.76-.14,1.24-.3,2.45-.48,3.7-.09.59-.19,1.16-.31,1.74-.07.31-.3.85-.27,1.14.03.27.32.52.39.8.1.37-.1.71-.1,1.09,0,.6,2.29.34,2.74.02h0Z"/>
    <rect class="cls-3" x="284.95" y="548.71" width="18.19" height="5.24" rx="2.62" ry="2.62"/>
    <rect class="cls-3" x="334.29" y="548.71" width="18.19" height="5.24" rx="2.62" ry="2.62"/>
    <rect class="cls-3" x="383.4" y="548.71" width="18.19" height="5.24" rx="2.62" ry="2.62"/>
    <path class="cls-5" d="M305.57,567.42c3.83,1.95,8.81,1.38,12.1-1.4s4.69-7.59,3.4-11.69c2.34,2.4,6.24,2.26,9.46,1.33s6.36-2.49,9.71-2.36"/>
    <path class="cls-5" d="M354.93,564.19c1.45,2.7,4.95,3.86,7.94,3.19s5.46-2.83,7.21-5.35c1.9-2.74,3.08-5.98,3.4-9.3,6.11,2.31,13,2.51,19.23.55"/>
    <path class="cls-3" d="M336.47,551.43c.63-4.02,1.25-8.05,1.88-12.07.26-1.65.56-3.4,1.67-4.64.61-.68,1.47-1.17,2.38-1.16s1.83.61,2.05,1.49-.43,1.93-1.33,1.98c.38,1.31.95,2.51,1.33,3.81.41,1.42.83,2.85,1.24,4.27.56,1.94,1.11,3.88,1.66,5.83"/>
  </g>
  <g>
    <g>
      <path class="cls-1" d="M527.36,457.97h4.21l24.36,31.94,24.1-31.94h4.21v57.73h-10.03v-34.47l-16.52,21.83h-3.88l-16.43-21.57v34.22h-10.03v-57.73Z"/>
      <path class="cls-1" d="M597.73,459.23h10.03v56.46h-10.03v-56.46Z"/>
      <path class="cls-1" d="M621.24,459.23h10.03v47.03h20.73v9.44h-30.76v-56.46Z"/>
      <path class="cls-1" d="M661.69,459.23h10.03v47.03h20.73v9.44h-30.76v-56.46Z"/>
      <path class="cls-1" d="M702.15,459.23h31.18v9.44h-21.15v13.32h15.76v9.44h-15.76v14.83h21.57v9.44h-31.6v-56.46Z"/>
    </g>
    <g>
      <path class="cls-1" d="M768.31,458.6h31.18v9.44h-21.15v13.32h15.76v9.44h-15.76v14.83h21.57v9.44h-31.6v-56.46Z"/>
      <path class="cls-1" d="M823.59,468.04h-17.36v-9.44h44.67v9.44h-17.28v47.03h-10.03v-47.03Z"/>
    </g>
    <g>
      <path class="cls-1" d="M527.36,597.93v-33.63h10.03v33.29c0,8.85,4.89,14.75,12.22,14.75s12.14-5.9,12.14-14.75v-33.29h9.86v33.63c0,14.07-9.35,23.85-22.33,23.85s-21.91-9.69-21.91-23.85Z"/>
      <path class="cls-1" d="M594.19,583.86v36.91h-9.52v-57.73h4.21l34.3,38.18v-36.91h9.52v57.73h-4.21l-34.3-38.18Z"/>
    </g>
    <g>
      <path class="cls-1" d="M663.38,564.18h20.98c16.85,0,29.58,12.14,29.58,28.23s-12.64,28.23-29.58,28.23h-20.98v-56.46ZM684.45,611.2c10.96,0,18.96-7.92,18.96-18.79s-8.01-18.79-18.96-18.79h-11.04v37.59h11.04Z"/>
      <path class="cls-1" d="M724.06,564.18h31.18v9.44h-21.15v13.32h15.76v9.44h-15.76v14.83h21.57v9.44h-31.6v-56.46ZM735.02,557.01l8.68-14.16,6.83,4.55-10.11,13.06-5.39-3.46Z"/>
      <path class="cls-1" d="M761.56,611.03l7.42-6.15c3.2,5.48,7.42,7.92,12.39,7.92s8.51-2.7,8.51-6.99c0-3.71-2.53-6.24-9.52-9.19-10.62-4.47-15.34-9.78-15.34-17.44,0-9.35,7.16-16.01,17.28-16.01,6.91,0,13.06,3.12,17.53,8.85l-6.99,6.24c-3.12-3.96-6.57-5.98-10.62-5.98-4.38,0-7.16,2.44-7.16,6.32,0,3.62,2.53,5.98,9.19,8.76,10.96,4.63,15.67,10.11,15.67,17.78,0,9.86-7.75,16.77-18.71,16.77-8.26,0-15.34-3.88-19.64-10.87Z"/>
      <path class="cls-1" d="M809.6,564.18h31.18v9.44h-21.15v13.32h15.76v9.44h-15.76v14.83h21.57v9.44h-31.6v-56.46Z"/>
      <path class="cls-1" d="M852.58,564.18h16.26c11.63,0,19.97,7.5,19.97,17.7,0,6.91-3.96,12.89-10.45,15.68l14.24,23.09h-11.8l-12.81-21.07h-5.39v21.07h-10.03v-56.46ZM868.43,590.3c6.32,0,10.37-3.29,10.37-8.43s-4.13-8.43-10.37-8.43h-5.81v16.85h5.81Z"/>
      <path class="cls-1" d="M908.71,573.62h-17.36v-9.44h44.67v9.44h-17.28v47.03h-10.03v-47.03Z"/>
    </g>
  </g>
</svg>